<svg width="16" height="16" viewBox="0 0 16 16" fill="none" xmlns="http://www.w3.org/2000/svg">
<g id="Account login" clip-path="url(#clip0_571_2022)">
<g id="Group">
<path id="Vector" d="M11.691 7.31199C12.4339 6.51814 12.848 5.51271 12.848 4.43996C12.8477 1.99175 10.6731 0 8.0001 0C5.32709 0 3.1522 1.99175 3.1522 4.43996C3.1522 5.51283 3.56614 6.51801 4.30888 7.31199C2.27014 8.32913 1 10.1285 1 12.1048C1 16 5.90538 16 8 16C10.0946 16 15 16 15 12.1048C15 10.1286 13.7299 8.32932 11.6911 7.31199H11.691ZM8.00007 1.24626C9.92289 1.24626 11.4872 2.67888 11.4872 4.43965C11.4872 5.45227 10.9759 6.38359 10.0844 6.99497C9.47509 7.41246 8.7541 7.63337 8 7.63337C7.2459 7.63337 6.52491 7.41244 5.91571 6.99497C5.02439 6.38356 4.51307 5.45227 4.51307 4.43965C4.51307 2.67888 6.07718 1.24626 7.99987 1.24626H8.00007ZM8.00007 14.7534C3.94182 14.7534 2.36083 14.0106 2.36083 12.1047C2.36083 10.4522 3.55174 8.94776 5.4239 8.19701C5.42429 8.19701 5.42442 8.19737 5.42442 8.19737C5.42573 8.1982 5.4269 8.19856 5.42821 8.19964C5.53107 8.25894 5.63655 8.31393 5.74359 8.36606C5.77818 8.38315 5.81395 8.3981 5.84919 8.41376C5.92334 8.44783 5.99735 8.48107 6.07306 8.51143C6.11575 8.52853 6.15883 8.54371 6.20203 8.55973C6.27227 8.58532 6.34262 8.6103 6.41403 8.63337C6.45985 8.64796 6.50567 8.66135 6.55201 8.67462C6.62276 8.69507 6.6939 8.71383 6.76557 8.73117C6.8123 8.74229 6.85929 8.75377 6.90655 8.76345C6.9803 8.77923 7.05471 8.79262 7.12938 8.80506C7.17481 8.81259 7.21997 8.82084 7.26579 8.82729C7.34751 8.83877 7.43027 8.84702 7.51303 8.85455C7.55219 8.85814 7.59148 8.86316 7.6309 8.86603C7.75308 8.87464 7.87605 8.87942 7.99993 8.87942C8.12381 8.87942 8.24678 8.87464 8.3691 8.86603C8.40852 8.86292 8.44794 8.85814 8.48697 8.85455C8.56973 8.84702 8.65223 8.83877 8.73382 8.82729C8.7799 8.82084 8.8252 8.81259 8.87101 8.80506C8.94529 8.7925 9.01983 8.77923 9.09332 8.76345C9.14071 8.75365 9.18744 8.74241 9.2343 8.73117C9.30623 8.71384 9.37724 8.69507 9.44799 8.67462C9.4942 8.66123 9.54002 8.64784 9.58597 8.63337C9.65724 8.61018 9.72786 8.58543 9.79783 8.55973C9.84104 8.54359 9.88425 8.52841 9.9268 8.51143C10.002 8.48131 10.0763 8.44783 10.1503 8.41411C10.1855 8.39798 10.2218 8.38315 10.2565 8.36617C10.3631 8.31405 10.4685 8.25906 10.5715 8.19976C10.573 8.19868 10.574 8.19844 10.5753 8.19748C10.5753 8.19748 10.5757 8.19713 10.5761 8.19713C12.4483 8.94779 13.6392 10.4523 13.6392 12.1049C13.6393 14.0105 12.0583 14.7534 7.99993 14.7534L8.00007 14.7534Z" fill="#78909C"/>
</g>
</g>
<defs>
<clipPath id="clip0_571_2022">
<rect width="16" height="16" fill="white"/>
</clipPath>
</defs>
</svg>
