<svg width="68" height="61" viewBox="0 0 68 61" fill="none" xmlns="http://www.w3.org/2000/svg">
<path d="M62.125 0.5H5.875C2.71094 0.5 0.25 3.07812 0.25 6.125V43.625C0.25 46.7891 2.71094 49.25 5.875 49.25H28.375L26.5 54.875H18.0625C16.4219 54.875 15.25 56.1641 15.25 57.6875C15.25 59.3281 16.4219 60.5 18.0625 60.5H49.9375C51.4609 60.5 52.75 59.3281 52.75 57.6875C52.75 56.1641 51.4609 54.875 49.9375 54.875H41.5L39.625 49.25H62.125C65.1719 49.25 67.75 46.7891 67.75 43.625V6.125C67.75 3.07812 65.1719 0.5 62.125 0.5ZM60.25 34.25H7.75V8H60.25V34.25Z" fill="#5BE584"/>
</svg>
