<svg width="16" height="16" viewBox="0 0 16 16" fill="none" xmlns="http://www.w3.org/2000/svg">
<g id="Password">
<g id="Group">
<path id="Vector" d="M12.9922 6.00217H12.495V4.08432C12.495 1.79361 10.8435 0 8.48167 0C6.11987 0 4.5039 1.82906 4.5039 4.08432V5.98448H4.00668C2.90572 5.98448 2.01782 6.87237 2 7.99115V13.9933C2 15.0943 2.8879 15.9822 4.00668 16H12.9922C14.0931 16 14.981 15.1121 14.9989 13.9933V7.99084C14.9989 6.88988 14.0931 6.00198 12.9922 6.00198V6.00217ZM5.49834 6.00217V4.08432C5.49834 2.3795 6.67039 0.994411 8.4816 0.994411C10.2751 0.994411 11.5004 2.34398 11.5004 4.08432V5.98448L5.49824 5.98435V6.00219L5.49834 6.00217ZM13.9866 13.9932C13.9866 14.5437 13.5427 14.9876 12.9922 14.9876H4.00671C3.45624 14.9876 3.0123 14.5437 3.0123 13.9932V7.99106C3.0123 7.44059 3.45624 6.99665 4.00671 6.99665H12.9922C13.5427 6.99665 13.9866 7.44059 13.9866 7.99106V13.9932ZM9.49387 9.9977C9.49387 10.3707 9.29853 10.6903 8.99665 10.8679H8.97893H8.99665V12.5016C8.99665 12.7858 8.76576 12.9988 8.49943 12.9988C8.21527 12.9988 8.0022 12.7679 8.0022 12.5016V10.8679H8.01992H8.0022C7.70034 10.6902 7.50498 10.3706 7.50498 9.9977C7.50498 9.44724 7.94893 9.00329 8.49939 9.00329C9.04986 8.98545 9.49381 9.42942 9.49381 9.9977H9.49387Z" fill="#78909C"/>
</g>
</g>
</svg>
