<svg width="23" height="23" viewBox="0 0 23 23" fill="none" xmlns="http://www.w3.org/2000/svg">
<path d="M11.5 9.95312L20.0781 1.375C20.5 0.90625 21.2031 0.90625 21.625 1.375C22.0938 1.79688 22.0938 2.5 21.625 2.92188L13.0469 11.5L21.625 20.0781C22.0938 20.5469 22.0938 21.25 21.625 21.6719C21.2031 22.1406 20.5 22.1406 20.0781 21.6719L11.5 13.0938L2.875 21.6719C2.45312 22.1406 1.75 22.1406 1.32812 21.6719C0.859375 21.25 0.859375 20.5469 1.32812 20.0781L9.90625 11.5L1.32812 2.92188C0.859375 2.5 0.859375 1.79688 1.32812 1.375C1.75 0.90625 2.45312 0.90625 2.875 1.375L11.5 9.95312Z" fill="white"/>
</svg>
