<svg width="11" height="11" viewBox="0 0 11 11" fill="none" xmlns="http://www.w3.org/2000/svg">
<path d="M9.25 0.25C10.0703 0.25 10.75 0.929688 10.75 1.75V9.25C10.75 10.0938 10.0703 10.75 9.25 10.75H1.75C0.90625 10.75 0.25 10.0938 0.25 9.25V1.75C0.25 0.929688 0.90625 0.25 1.75 0.25H9.25ZM8.19531 4.46875C8.45312 4.21094 8.45312 3.8125 8.19531 3.55469C7.9375 3.29688 7.53906 3.29688 7.28125 3.55469L4.75 6.08594L3.69531 5.05469C3.4375 4.79688 3.03906 4.79688 2.78125 5.05469C2.52344 5.3125 2.52344 5.71094 2.78125 5.96875L4.28125 7.46875C4.53906 7.72656 4.9375 7.72656 5.19531 7.46875L8.19531 4.46875Z" fill="white"/>
</svg>
